<svg xmlns="http://www.w3.org/2000/svg" viewBox="0 0 256 256" width="256" height="256" shape-rendering="crispEdges"><rect x="150" y="146" width="4" height="2" fill="#fdea8c"/><rect x="154" y="146" width="4" height="2" fill="#fee164"/><rect x="158" y="146" width="2" height="2" fill="#cc9637"/><rect x="160" y="146" width="2" height="2" fill="#93713d"/><rect x="150" y="148" width="2" height="2" fill="#fee164"/><rect x="152" y="148" width="2" height="2" fill="#fdea8c"/><rect x="154" y="148" width="2" height="2" fill="#fee164"/><rect x="156" y="148" width="2" height="2" fill="#f4cf5c"/><rect x="158" y="148" width="4" height="2" fill="#744f26"/><rect x="162" y="148" width="2" height="2" fill="#372732"/><rect x="150" y="150" width="2" height="2" fill="#fdd357"/><rect x="152" y="150" width="2" height="2" fill="#f4cf5c"/><rect x="154" y="150" width="2" height="2" fill="#fdd357"/><rect x="156" y="150" width="2" height="2" fill="#cc9637"/><rect x="158" y="150" width="2" height="2" fill="#0a0917"/><rect x="160" y="150" width="2" height="2" fill="#202042"/><rect x="162" y="150" width="2" height="2" fill="#171736"/><rect x="150" y="152" width="2" height="2" fill="#f5c44c"/><rect x="152" y="152" width="2" height="2" fill="#c0822f"/><rect x="154" y="152" width="2" height="2" fill="#dcad47"/><rect x="156" y="152" width="2" height="2" fill="#744f26"/><rect x="158" y="152" width="2" height="2" fill="#171736"/><rect x="160" y="152" width="2" height="2" fill="#36375f"/><rect x="162" y="152" width="2" height="2" fill="#171736"/><rect x="164" y="152" width="2" height="2" fill="#0a0917"/><rect x="166" y="152" width="2" height="2" fill="#372732"/><rect x="150" y="154" width="2" height="2" fill="#c0822f"/><rect x="152" y="154" width="4" height="2" fill="#93713d"/><rect x="156" y="154" width="2" height="2" fill="#372732"/><rect x="158" y="154" width="2" height="2" fill="#171736"/><rect x="160" y="154" width="2" height="2" fill="#202042"/><rect x="162" y="154" width="2" height="2" fill="#372732"/><rect x="164" y="154" width="2" height="2" fill="#171736"/><rect x="166" y="154" width="2" height="2" fill="#0a0917"/><rect x="150" y="156" width="2" height="2" fill="#171736"/><rect x="152" y="156" width="4" height="2" fill="#202042"/><rect x="156" y="156" width="2" height="2" fill="#372732"/><rect x="158" y="156" width="2" height="2" fill="#93713d"/><rect x="160" y="156" width="2" height="2" fill="#f4cf5c"/><rect x="162" y="156" width="6" height="2" fill="#fee164"/><rect x="168" y="156" width="4" height="2" fill="#fdea8c"/><rect x="172" y="156" width="4" height="2" fill="#fee164"/><rect x="176" y="156" width="2" height="2" fill="#f4cf5c"/><rect x="150" y="158" width="4" height="2" fill="#202042"/><rect x="154" y="158" width="2" height="2" fill="#0a0917"/><rect x="156" y="158" width="2" height="2" fill="#93713d"/><rect x="158" y="158" width="4" height="2" fill="#dcad47"/><rect x="162" y="158" width="2" height="2" fill="#cc9637"/><rect x="164" y="158" width="2" height="2" fill="#c0822f"/><rect x="166" y="158" width="8" height="2" fill="#93713d"/><rect x="174" y="158" width="2" height="2" fill="#c0822f"/><rect x="176" y="158" width="2" height="2" fill="#cc9637"/><rect x="150" y="160" width="2" height="2" fill="#36375f"/><rect x="152" y="160" width="2" height="2" fill="#0a0917"/><rect x="154" y="160" width="4" height="2" fill="#93713d"/><rect x="158" y="160" width="8" height="2" fill="#372732"/><rect x="166" y="160" width="12" height="2" fill="#744f26"/><rect x="178" y="160" width="2" height="2" fill="#cc9637"/><rect x="180" y="160" width="2" height="2" fill="#dcad47"/><rect x="182" y="160" width="2" height="2" fill="#372732"/><rect x="150" y="162" width="2" height="2" fill="#4f4759"/><rect x="152" y="162" width="2" height="2" fill="#0a0917"/><rect x="154" y="162" width="2" height="2" fill="#744f26"/><rect x="156" y="162" width="2" height="2" fill="#93713d"/><rect x="158" y="162" width="20" height="2" fill="#372732"/><rect x="178" y="162" width="2" height="2" fill="#dcad47"/><rect x="180" y="162" width="2" height="2" fill="#fdd357"/><rect x="182" y="162" width="2" height="2" fill="#372732"/><rect x="150" y="164" width="2" height="2" fill="#93713d"/><rect x="152" y="164" width="4" height="2" fill="#744f26"/><rect x="156" y="164" width="2" height="2" fill="#cc9637"/><rect x="158" y="164" width="20" height="2" fill="#dcad47"/><rect x="178" y="164" width="4" height="2" fill="#f4cf5c"/><rect x="182" y="164" width="2" height="2" fill="#372732"/><rect x="150" y="166" width="4" height="2" fill="#744f26"/><rect x="154" y="166" width="2" height="2" fill="#c0822f"/><rect x="156" y="166" width="2" height="2" fill="#fdd357"/><rect x="158" y="166" width="22" height="2" fill="#fee164"/><rect x="180" y="166" width="2" height="2" fill="#dcad47"/><rect x="182" y="166" width="2" height="2" fill="#000000"/><rect x="150" y="168" width="2" height="2" fill="#fdd357"/><rect x="152" y="168" width="2" height="2" fill="#cc9637"/><rect x="154" y="168" width="2" height="2" fill="#744f26"/><rect x="156" y="168" width="2" height="2" fill="#efb745"/><rect x="158" y="168" width="10" height="2" fill="#fdd357"/><rect x="168" y="168" width="2" height="2" fill="#fee164"/><rect x="170" y="168" width="6" height="2" fill="#fdd357"/><rect x="176" y="168" width="2" height="2" fill="#f4cf5c"/><rect x="178" y="168" width="2" height="2" fill="#fee164"/><rect x="180" y="168" width="2" height="2" fill="#dcad47"/><rect x="182" y="168" width="2" height="2" fill="#000000"/><rect x="150" y="170" width="2" height="2" fill="#fee164"/><rect x="152" y="170" width="2" height="2" fill="#fdd357"/><rect x="154" y="170" width="4" height="2" fill="#93713d"/><rect x="158" y="170" width="6" height="2" fill="#dcad47"/><rect x="164" y="170" width="2" height="2" fill="#efb745"/><rect x="166" y="170" width="4" height="2" fill="#f5c44c"/><rect x="170" y="170" width="6" height="2" fill="#f4cf5c"/><rect x="176" y="170" width="2" height="2" fill="#f5c44c"/><rect x="178" y="170" width="2" height="2" fill="#fdd357"/><rect x="180" y="170" width="2" height="2" fill="#cc9637"/><rect x="182" y="170" width="2" height="2" fill="#0a0917"/><rect x="184" y="170" width="2" height="2" fill="#372732"/><rect x="150" y="172" width="2" height="2" fill="#fee164"/><rect x="152" y="172" width="2" height="2" fill="#f5c44c"/><rect x="154" y="172" width="2" height="2" fill="#c0822f"/><rect x="156" y="172" width="2" height="2" fill="#744f26"/><rect x="158" y="172" width="2" height="2" fill="#372732"/><rect x="160" y="172" width="2" height="2" fill="#744f26"/><rect x="162" y="172" width="4" height="2" fill="#93713d"/><rect x="166" y="172" width="4" height="2" fill="#744f26"/><rect x="170" y="172" width="2" height="2" fill="#93713d"/><rect x="172" y="172" width="2" height="2" fill="#c0822f"/><rect x="174" y="172" width="4" height="2" fill="#93713d"/><rect x="178" y="172" width="2" height="2" fill="#c0822f"/><rect x="180" y="172" width="2" height="2" fill="#93713d"/><rect x="182" y="172" width="2" height="2" fill="#dcad47"/><rect x="184" y="172" width="2" height="2" fill="#744f26"/><rect x="186" y="172" width="2" height="2" fill="#000000"/><rect x="150" y="174" width="2" height="2" fill="#fee164"/><rect x="152" y="174" width="2" height="2" fill="#f5c44c"/><rect x="154" y="174" width="2" height="2" fill="#c0822f"/><rect x="156" y="174" width="2" height="2" fill="#372732"/><rect x="158" y="174" width="4" height="2" fill="#744f26"/><rect x="162" y="174" width="8" height="2" fill="#93713d"/><rect x="170" y="174" width="8" height="2" fill="#c0822f"/><rect x="178" y="174" width="2" height="2" fill="#93713d"/><rect x="180" y="174" width="2" height="2" fill="#cc9637"/><rect x="182" y="174" width="2" height="2" fill="#fdd357"/><rect x="184" y="174" width="2" height="2" fill="#cc9637"/><rect x="186" y="174" width="2" height="2" fill="#0a0917"/><rect x="150" y="176" width="2" height="2" fill="#fdea8c"/><rect x="152" y="176" width="2" height="2" fill="#fdd357"/><rect x="154" y="176" width="2" height="2" fill="#c0822f"/><rect x="156" y="176" width="2" height="2" fill="#0a0917"/><rect x="158" y="176" width="2" height="2" fill="#93713d"/><rect x="160" y="176" width="4" height="2" fill="#744f26"/><rect x="164" y="176" width="6" height="2" fill="#93713d"/><rect x="170" y="176" width="6" height="2" fill="#c0822f"/><rect x="176" y="176" width="4" height="2" fill="#93713d"/><rect x="180" y="176" width="2" height="2" fill="#cc9637"/><rect x="182" y="176" width="4" height="2" fill="#efb745"/><rect x="186" y="176" width="2" height="2" fill="#0a0917"/><rect x="150" y="178" width="2" height="2" fill="#f4cf5c"/><rect x="152" y="178" width="2" height="2" fill="#f5c44c"/><rect x="154" y="178" width="2" height="2" fill="#93713d"/><rect x="156" y="178" width="2" height="2" fill="#0a0917"/><rect x="158" y="178" width="4" height="2" fill="#744f26"/><rect x="162" y="178" width="8" height="2" fill="#93713d"/><rect x="170" y="178" width="2" height="2" fill="#c0822f"/><rect x="172" y="178" width="2" height="2" fill="#93713d"/><rect x="174" y="178" width="2" height="2" fill="#c0822f"/><rect x="176" y="178" width="4" height="2" fill="#744f26"/><rect x="180" y="178" width="2" height="2" fill="#cc9637"/><rect x="182" y="178" width="2" height="2" fill="#efb745"/><rect x="184" y="178" width="2" height="2" fill="#dcad47"/><rect x="186" y="178" width="2" height="2" fill="#0a0917"/><rect x="150" y="180" width="2" height="2" fill="#fdd357"/><rect x="152" y="180" width="2" height="2" fill="#efb745"/><rect x="154" y="180" width="2" height="2" fill="#372732"/><rect x="156" y="180" width="2" height="2" fill="#0a0917"/><rect x="158" y="180" width="10" height="2" fill="#744f26"/><rect x="168" y="180" width="4" height="2" fill="#93713d"/><rect x="172" y="180" width="2" height="2" fill="#744f26"/><rect x="174" y="180" width="2" height="2" fill="#93713d"/><rect x="176" y="180" width="4" height="2" fill="#744f26"/><rect x="180" y="180" width="2" height="2" fill="#efb745"/><rect x="182" y="180" width="2" height="2" fill="#fdd357"/><rect x="184" y="180" width="2" height="2" fill="#93713d"/><rect x="186" y="180" width="2" height="2" fill="#000000"/><rect x="150" y="182" width="4" height="2" fill="#744f26"/><rect x="154" y="182" width="2" height="2" fill="#372732"/><rect x="156" y="182" width="2" height="2" fill="#744f26"/><rect x="158" y="182" width="2" height="2" fill="#93713d"/><rect x="160" y="182" width="2" height="2" fill="#c0822f"/><rect x="162" y="182" width="14" height="2" fill="#cc9637"/><rect x="176" y="182" width="4" height="2" fill="#efb745"/><rect x="180" y="182" width="4" height="2" fill="#c0822f"/><rect x="184" y="182" width="2" height="2" fill="#372732"/><rect x="150" y="184" width="4" height="2" fill="#744f26"/><rect x="154" y="184" width="4" height="2" fill="#93713d"/><rect x="158" y="184" width="12" height="2" fill="#f5c44c"/><rect x="170" y="184" width="8" height="2" fill="#efb745"/><rect x="178" y="184" width="2" height="2" fill="#dcad47"/><rect x="180" y="184" width="2" height="2" fill="#372732"/><rect x="182" y="184" width="2" height="2" fill="#0a0917"/><rect x="150" y="186" width="4" height="2" fill="#c0822f"/><rect x="154" y="186" width="2" height="2" fill="#93713d"/><rect x="156" y="186" width="2" height="2" fill="#744f26"/><rect x="158" y="186" width="2" height="2" fill="#dcad47"/><rect x="160" y="186" width="2" height="2" fill="#efb745"/><rect x="162" y="186" width="2" height="2" fill="#f5c44c"/><rect x="164" y="186" width="10" height="2" fill="#efb745"/><rect x="174" y="186" width="4" height="2" fill="#f5c44c"/><rect x="178" y="186" width="2" height="2" fill="#93713d"/><rect x="180" y="186" width="2" height="2" fill="#0a0917"/><rect x="150" y="188" width="6" height="2" fill="#c0822f"/><rect x="156" y="188" width="2" height="2" fill="#372732"/><rect x="158" y="188" width="2" height="2" fill="#744f26"/><rect x="160" y="188" width="4" height="2" fill="#efb745"/><rect x="164" y="188" width="2" height="2" fill="#f5c44c"/><rect x="166" y="188" width="8" height="2" fill="#efb745"/><rect x="174" y="188" width="2" height="2" fill="#dcad47"/><rect x="176" y="188" width="2" height="2" fill="#93713d"/><rect x="178" y="188" width="2" height="2" fill="#372732"/><rect x="150" y="190" width="4" height="2" fill="#c0822f"/><rect x="154" y="190" width="2" height="2" fill="#cc9637"/><rect x="156" y="190" width="2" height="2" fill="#93713d"/><rect x="158" y="190" width="2" height="2" fill="#0a0917"/><rect x="160" y="190" width="16" height="2" fill="#372732"/><rect x="176" y="190" width="2" height="2" fill="#000000"/><rect x="150" y="192" width="4" height="2" fill="#cc9637"/><rect x="154" y="192" width="4" height="2" fill="#c0822f"/><rect x="158" y="192" width="2" height="2" fill="#372732"/><rect x="160" y="192" width="2" height="2" fill="#0a0917"/><rect x="162" y="192" width="2" height="2" fill="#202042"/><rect x="164" y="192" width="2" height="2" fill="#171736"/><rect x="166" y="192" width="2" height="2" fill="#202042"/><rect x="168" y="192" width="8" height="2" fill="#36375f"/><rect x="176" y="192" width="2" height="2" fill="#171736"/><rect x="150" y="194" width="6" height="2" fill="#cc9637"/><rect x="156" y="194" width="2" height="2" fill="#c0822f"/><rect x="158" y="194" width="2" height="2" fill="#372732"/><rect x="160" y="194" width="8" height="2" fill="#744f26"/><rect x="168" y="194" width="2" height="2" fill="#372732"/><rect x="170" y="194" width="6" height="2" fill="#202042"/><rect x="176" y="194" width="4" height="2" fill="#372732"/><rect x="150" y="196" width="2" height="2" fill="#c0822f"/><rect x="152" y="196" width="2" height="2" fill="#93713d"/><rect x="154" y="196" width="4" height="2" fill="#744f26"/><rect x="158" y="196" width="2" height="2" fill="#93713d"/><rect x="160" y="196" width="2" height="2" fill="#dcad47"/><rect x="162" y="196" width="4" height="2" fill="#efb745"/><rect x="166" y="196" width="4" height="2" fill="#cc9637"/><rect x="170" y="196" width="2" height="2" fill="#744f26"/><rect x="172" y="196" width="2" height="2" fill="#171736"/><rect x="174" y="196" width="2" height="2" fill="#36375f"/><rect x="176" y="196" width="2" height="2" fill="#4f4759"/><rect x="178" y="196" width="2" height="2" fill="#372732"/><rect x="150" y="198" width="2" height="2" fill="#93713d"/><rect x="152" y="198" width="2" height="2" fill="#744f26"/><rect x="154" y="198" width="2" height="2" fill="#93713d"/><rect x="156" y="198" width="4" height="2" fill="#cc9637"/><rect x="160" y="198" width="2" height="2" fill="#efb745"/><rect x="162" y="198" width="2" height="2" fill="#f5c44c"/><rect x="164" y="198" width="2" height="2" fill="#dcad47"/><rect x="166" y="198" width="2" height="2" fill="#efb745"/><rect x="168" y="198" width="2" height="2" fill="#f5c44c"/><rect x="170" y="198" width="2" height="2" fill="#fdd357"/><rect x="172" y="198" width="2" height="2" fill="#744f26"/><rect x="174" y="198" width="4" height="2" fill="#372732"/><rect x="178" y="198" width="2" height="2" fill="#0a0917"/></svg>