<svg xmlns="http://www.w3.org/2000/svg" viewBox="0 0 256 256" width="256" height="256" shape-rendering="crispEdges"><rect x="108" y="92" width="2" height="2" fill="#12132c"/><rect x="110" y="92" width="2" height="2" fill="#12132c"/><rect x="112" y="92" width="2" height="2" fill="#12132c"/><rect x="114" y="92" width="2" height="2" fill="#12132c"/><rect x="116" y="92" width="2" height="2" fill="#12132c"/><rect x="106" y="94" width="2" height="2" fill="#12132c"/><rect x="118" y="94" width="2" height="2" fill="#12132c"/><rect x="106" y="96" width="2" height="2" fill="#12132c"/><rect x="118" y="96" width="2" height="2" fill="#12132c"/><rect x="106" y="98" width="2" height="2" fill="#12132c"/><rect x="118" y="98" width="2" height="2" fill="#12132c"/><rect x="106" y="100" width="2" height="2" fill="#12132c"/><rect x="118" y="100" width="2" height="2" fill="#12132c"/><rect x="106" y="102" width="2" height="2" fill="#12132c"/><rect x="118" y="102" width="2" height="2" fill="#12132c"/><rect x="108" y="104" width="2" height="2" fill="#12132c"/><rect x="110" y="104" width="2" height="2" fill="#12132c"/><rect x="112" y="104" width="2" height="2" fill="#12132c"/><rect x="114" y="104" width="2" height="2" fill="#12132c"/><rect x="116" y="104" width="2" height="2" fill="#12132c"/><rect x="144" y="92" width="2" height="2" fill="#12132c"/><rect x="146" y="92" width="2" height="2" fill="#12132c"/><rect x="148" y="92" width="2" height="2" fill="#12132c"/><rect x="150" y="92" width="2" height="2" fill="#12132c"/><rect x="152" y="92" width="2" height="2" fill="#12132c"/><rect x="142" y="94" width="2" height="2" fill="#12132c"/><rect x="154" y="94" width="2" height="2" fill="#12132c"/><rect x="142" y="96" width="2" height="2" fill="#12132c"/><rect x="154" y="96" width="2" height="2" fill="#12132c"/><rect x="142" y="98" width="2" height="2" fill="#12132c"/><rect x="154" y="98" width="2" height="2" fill="#12132c"/><rect x="142" y="100" width="2" height="2" fill="#12132c"/><rect x="154" y="100" width="2" height="2" fill="#12132c"/><rect x="142" y="102" width="2" height="2" fill="#12132c"/><rect x="154" y="102" width="2" height="2" fill="#12132c"/><rect x="144" y="104" width="2" height="2" fill="#12132c"/><rect x="146" y="104" width="2" height="2" fill="#12132c"/><rect x="148" y="104" width="2" height="2" fill="#12132c"/><rect x="150" y="104" width="2" height="2" fill="#12132c"/><rect x="152" y="104" width="2" height="2" fill="#12132c"/><rect x="120" y="98" width="22" height="2" fill="#12132c"/><rect x="110" y="96" width="2" height="2" fill="#f5c34b"/><rect x="146" y="96" width="2" height="2" fill="#f5c34b"/><rect x="104" y="96" width="2" height="2" fill="#12132c"/><rect x="156" y="96" width="2" height="2" fill="#12132c"/></svg>