<svg xmlns="http://www.w3.org/2000/svg" viewBox="0 0 256 256" width="256" height="256" shape-rendering="crispEdges"><rect x="148" y="88" width="2" height="2" fill="#ce9f41"/><rect x="150" y="88" width="2" height="2" fill="#bf842f"/><rect x="152" y="88" width="2" height="2" fill="#9a783b"/><rect x="154" y="88" width="2" height="2" fill="#6b4f2f"/><rect x="156" y="88" width="2" height="2" fill="#2b1e2b"/><rect x="158" y="88" width="2" height="2" fill="#000038"/><rect x="160" y="88" width="16" height="2" fill="#1b1b3a"/><rect x="176" y="88" width="2" height="2" fill="#080712"/><rect x="148" y="90" width="2" height="2" fill="#bf842f"/><rect x="150" y="90" width="4" height="2" fill="#ce9f41"/><rect x="154" y="90" width="2" height="2" fill="#bf842f"/><rect x="156" y="90" width="2" height="2" fill="#6b4f2f"/><rect x="158" y="90" width="2" height="2" fill="#2b1e2b"/><rect x="160" y="90" width="2" height="2" fill="#13132e"/><rect x="162" y="90" width="12" height="2" fill="#1b1b3a"/><rect x="174" y="90" width="2" height="2" fill="#13132e"/><rect x="148" y="92" width="2" height="2" fill="#e5ac3e"/><rect x="150" y="92" width="2" height="2" fill="#eec04c"/><rect x="152" y="92" width="2" height="2" fill="#e5ac3e"/><rect x="154" y="92" width="2" height="2" fill="#bf842f"/><rect x="156" y="92" width="2" height="2" fill="#ce9f41"/><rect x="158" y="92" width="2" height="2" fill="#bf842f"/><rect x="160" y="92" width="2" height="2" fill="#2b1e2b"/><rect x="162" y="92" width="2" height="2" fill="#13132e"/><rect x="164" y="92" width="10" height="2" fill="#1b1b3a"/><rect x="174" y="92" width="2" height="2" fill="#080712"/><rect x="170" y="94" width="2" height="2" fill="#1b1b3a"/><rect x="172" y="94" width="2" height="2" fill="#080712"/><rect x="170" y="96" width="2" height="2" fill="#080712"/><rect x="176" y="104" width="2" height="2" fill="#080712"/><rect x="178" y="104" width="4" height="2" fill="#2b1e2b"/><rect x="182" y="104" width="2" height="2" fill="#6b4f2f"/><rect x="184" y="104" width="2" height="2" fill="#2b1e2b"/><rect x="172" y="106" width="4" height="2" fill="#080712"/><rect x="176" y="106" width="2" height="2" fill="#2b1e2b"/><rect x="178" y="106" width="2" height="2" fill="#ce9f41"/><rect x="180" y="106" width="2" height="2" fill="#f9ca4e"/><rect x="182" y="106" width="2" height="2" fill="#fddb57"/><rect x="184" y="106" width="2" height="2" fill="#bf842f"/><rect x="186" y="106" width="2" height="2" fill="#2b1e2b"/><rect x="188" y="106" width="2" height="2" fill="#080712"/><rect x="172" y="108" width="2" height="2" fill="#6b4f2f"/><rect x="174" y="108" width="2" height="2" fill="#2b1e2b"/><rect x="176" y="108" width="2" height="2" fill="#6b4f2f"/><rect x="178" y="108" width="4" height="2" fill="#eec04c"/><rect x="182" y="108" width="2" height="2" fill="#ce9f41"/><rect x="184" y="108" width="2" height="2" fill="#9a783b"/><rect x="186" y="108" width="2" height="2" fill="#e5ac3e"/><rect x="188" y="108" width="2" height="2" fill="#9a783b"/><rect x="190" y="108" width="2" height="2" fill="#080712"/><rect x="172" y="110" width="2" height="2" fill="#080712"/><rect x="174" y="110" width="2" height="2" fill="#956028"/><rect x="176" y="110" width="2" height="2" fill="#ce9f41"/><rect x="178" y="110" width="4" height="2" fill="#e5ac3e"/><rect x="182" y="110" width="2" height="2" fill="#6b4f2f"/><rect x="184" y="110" width="2" height="2" fill="#ce9f41"/><rect x="186" y="110" width="4" height="2" fill="#e5ac3e"/><rect x="190" y="110" width="2" height="2" fill="#2b1e2b"/><rect x="170" y="112" width="2" height="2" fill="#2b1e2b"/><rect x="172" y="112" width="2" height="2" fill="#9a783b"/><rect x="174" y="112" width="2" height="2" fill="#f9ca4e"/><rect x="176" y="112" width="2" height="2" fill="#e5ac3e"/><rect x="178" y="112" width="2" height="2" fill="#ce9f41"/><rect x="180" y="112" width="2" height="2" fill="#6b4f2f"/><rect x="182" y="112" width="2" height="2" fill="#9a783b"/><rect x="184" y="112" width="2" height="2" fill="#ce9f41"/><rect x="186" y="112" width="2" height="2" fill="#e5ac3e"/><rect x="188" y="112" width="2" height="2" fill="#ce9f41"/><rect x="190" y="112" width="2" height="2" fill="#080712"/><rect x="170" y="114" width="2" height="2" fill="#ce9f41"/><rect x="172" y="114" width="4" height="2" fill="#f9ca4e"/><rect x="176" y="114" width="2" height="2" fill="#eec04c"/><rect x="178" y="114" width="4" height="2" fill="#6b4f2f"/><rect x="182" y="114" width="2" height="2" fill="#eec04c"/><rect x="184" y="114" width="4" height="2" fill="#bf842f"/><rect x="188" y="114" width="2" height="2" fill="#ce9f41"/><rect x="190" y="114" width="2" height="2" fill="#080712"/><rect x="170" y="116" width="2" height="2" fill="#eec04c"/><rect x="172" y="116" width="4" height="2" fill="#fddb57"/><rect x="176" y="116" width="2" height="2" fill="#6b4f2f"/><rect x="178" y="116" width="2" height="2" fill="#080712"/><rect x="180" y="116" width="2" height="2" fill="#9a783b"/><rect x="182" y="116" width="6" height="2" fill="#bf842f"/><rect x="188" y="116" width="2" height="2" fill="#6b4f2f"/><rect x="190" y="116" width="2" height="2" fill="#080712"/><rect x="170" y="118" width="2" height="2" fill="#eec04c"/><rect x="172" y="118" width="4" height="2" fill="#fddb57"/><rect x="176" y="118" width="2" height="2" fill="#9a783b"/><rect x="178" y="118" width="2" height="2" fill="#2b1e2b"/><rect x="180" y="118" width="4" height="2" fill="#956028"/><rect x="184" y="118" width="2" height="2" fill="#bf842f"/><rect x="186" y="118" width="2" height="2" fill="#956028"/><rect x="188" y="118" width="2" height="2" fill="#080712"/><rect x="170" y="120" width="2" height="2" fill="#f9ca4e"/><rect x="172" y="120" width="4" height="2" fill="#fddb57"/><rect x="176" y="120" width="2" height="2" fill="#f9ca4e"/><rect x="178" y="120" width="2" height="2" fill="#eec04c"/><rect x="180" y="120" width="4" height="2" fill="#e5ac3e"/><rect x="184" y="120" width="2" height="2" fill="#6b4f2f"/><rect x="186" y="120" width="2" height="2" fill="#080712"/><rect x="170" y="122" width="2" height="2" fill="#eec04c"/><rect x="172" y="122" width="4" height="2" fill="#fddb57"/><rect x="176" y="122" width="2" height="2" fill="#f9ca4e"/><rect x="178" y="122" width="6" height="2" fill="#fddb57"/><rect x="184" y="122" width="2" height="2" fill="#6b4f2f"/><rect x="170" y="124" width="2" height="2" fill="#eec04c"/><rect x="172" y="124" width="2" height="2" fill="#f9ca4e"/><rect x="174" y="124" width="2" height="2" fill="#fddb57"/><rect x="176" y="124" width="6" height="2" fill="#e5ac3e"/><rect x="182" y="124" width="2" height="2" fill="#bf842f"/><rect x="184" y="124" width="2" height="2" fill="#2b1e2b"/><rect x="170" y="126" width="2" height="2" fill="#f9ca4e"/><rect x="172" y="126" width="4" height="2" fill="#eec04c"/><rect x="176" y="126" width="2" height="2" fill="#ce9f41"/><rect x="178" y="126" width="2" height="2" fill="#9a783b"/><rect x="180" y="126" width="2" height="2" fill="#956028"/><rect x="182" y="126" width="2" height="2" fill="#2b1e2b"/><rect x="170" y="128" width="2" height="2" fill="#f9ca4e"/><rect x="172" y="128" width="4" height="2" fill="#eec04c"/><rect x="176" y="128" width="2" height="2" fill="#e5ac3e"/><rect x="178" y="128" width="2" height="2" fill="#ce9f41"/><rect x="180" y="128" width="2" height="2" fill="#bf842f"/><rect x="182" y="128" width="2" height="2" fill="#080712"/><rect x="170" y="130" width="6" height="2" fill="#f9ca4e"/><rect x="176" y="130" width="4" height="2" fill="#ce9f41"/><rect x="180" y="130" width="2" height="2" fill="#956028"/><rect x="182" y="130" width="2" height="2" fill="#2b1e2b"/><rect x="170" y="132" width="4" height="2" fill="#f9ca4e"/><rect x="174" y="132" width="2" height="2" fill="#fddb57"/><rect x="176" y="132" width="2" height="2" fill="#ce9f41"/><rect x="178" y="132" width="2" height="2" fill="#6b4f2f"/><rect x="180" y="132" width="4" height="2" fill="#2b1e2b"/><rect x="170" y="134" width="6" height="2" fill="#fddb57"/><rect x="176" y="134" width="2" height="2" fill="#eec04c"/><rect x="178" y="134" width="2" height="2" fill="#6b4f2f"/><rect x="180" y="134" width="2" height="2" fill="#2b1e2b"/><rect x="170" y="136" width="4" height="2" fill="#eec04c"/><rect x="174" y="136" width="2" height="2" fill="#f9ca4e"/><rect x="176" y="136" width="2" height="2" fill="#e5ac3e"/><rect x="178" y="136" width="2" height="2" fill="#6b4f2f"/><rect x="170" y="138" width="2" height="2" fill="#ce9f41"/><rect x="172" y="138" width="2" height="2" fill="#e5ac3e"/><rect x="174" y="138" width="2" height="2" fill="#ce9f41"/><rect x="176" y="138" width="2" height="2" fill="#bf842f"/><rect x="178" y="138" width="2" height="2" fill="#956028"/><rect x="148" y="140" width="6" height="2" fill="#fee77f"/><rect x="154" y="140" width="2" height="2" fill="#eec04c"/><rect x="156" y="140" width="2" height="2" fill="#f9ca4e"/><rect x="158" y="140" width="2" height="2" fill="#956028"/><rect x="160" y="140" width="2" height="2" fill="#13132e"/><rect x="162" y="140" width="2" height="2" fill="#080712"/><rect x="164" y="140" width="2" height="2" fill="#956028"/><rect x="166" y="140" width="2" height="2" fill="#ce9f41"/><rect x="168" y="140" width="2" height="2" fill="#f9ca4e"/><rect x="170" y="140" width="2" height="2" fill="#ce9f41"/><rect x="172" y="140" width="6" height="2" fill="#bf842f"/><rect x="178" y="140" width="2" height="2" fill="#6b4f2f"/><rect x="148" y="142" width="4" height="2" fill="#fee77f"/><rect x="152" y="142" width="2" height="2" fill="#eec04c"/><rect x="154" y="142" width="4" height="2" fill="#e5ac3e"/><rect x="158" y="142" width="2" height="2" fill="#2b1e2b"/><rect x="160" y="142" width="2" height="2" fill="#1b1b3a"/><rect x="162" y="142" width="2" height="2" fill="#13132e"/><rect x="164" y="142" width="2" height="2" fill="#9a783b"/><rect x="166" y="142" width="2" height="2" fill="#ce9f41"/><rect x="168" y="142" width="4" height="2" fill="#eec04c"/><rect x="172" y="142" width="2" height="2" fill="#e5ac3e"/><rect x="174" y="142" width="2" height="2" fill="#bf842f"/><rect x="176" y="142" width="2" height="2" fill="#956028"/><rect x="178" y="142" width="2" height="2" fill="#080712"/><rect x="148" y="144" width="2" height="2" fill="#e5ac3e"/><rect x="150" y="144" width="2" height="2" fill="#f9ca4e"/><rect x="152" y="144" width="4" height="2" fill="#bf842f"/><rect x="156" y="144" width="2" height="2" fill="#956028"/><rect x="158" y="144" width="2" height="2" fill="#322e48"/><rect x="160" y="144" width="2" height="2" fill="#1b1b3a"/><rect x="162" y="144" width="2" height="2" fill="#6b4f2f"/><rect x="164" y="144" width="2" height="2" fill="#bf842f"/><rect x="166" y="144" width="2" height="2" fill="#9a783b"/><rect x="168" y="144" width="2" height="2" fill="#eec04c"/><rect x="170" y="144" width="4" height="2" fill="#e5ac3e"/><rect x="174" y="144" width="2" height="2" fill="#ce9f41"/><rect x="176" y="144" width="2" height="2" fill="#6b4f2f"/><rect x="178" y="144" width="2" height="2" fill="#000100"/><rect x="148" y="146" width="2" height="2" fill="#e5ac3e"/><rect x="150" y="146" width="2" height="2" fill="#bf842f"/><rect x="152" y="146" width="2" height="2" fill="#956028"/><rect x="154" y="146" width="2" height="2" fill="#bf842f"/><rect x="156" y="146" width="2" height="2" fill="#9a783b"/><rect x="158" y="146" width="2" height="2" fill="#3e3d5d"/><rect x="160" y="146" width="2" height="2" fill="#322e48"/><rect x="162" y="146" width="2" height="2" fill="#ce9f41"/><rect x="164" y="146" width="2" height="2" fill="#6b4f2f"/><rect x="166" y="146" width="2" height="2" fill="#bf842f"/><rect x="168" y="146" width="6" height="2" fill="#e5ac3e"/><rect x="174" y="146" width="2" height="2" fill="#ce9f41"/><rect x="176" y="146" width="2" height="2" fill="#2b1e2b"/></svg>